<?xml version="1.0"?>
<svg version="1.1" xmlns="http://www.w3.org/2000/svg" width="400px" height="60px" style="border: dashed 2px #aaa"><path fill="#ffffff" d="M49.17138671875,44.990234375l-1.2939453125-4.248046875l-6.50634765625,0l-1.2939453125,4.248046875l-4.0771484375,0l6.298828125-17.919921875l4.62646484375,0l6.3232421875,17.919921875l-4.0771484375,0z M46.97412109375,37.568359375q-1.79443359375-5.77392578125-2.020263671875-6.53076171875t-0.323486328125-1.1962890625q-0.40283203125,1.5625-2.30712890625,7.72705078125l4.65087890625,0z M64.512817382812,31.08642578125q2.4169921875,0,3.7841796875,1.885986328125t1.3671875,5.169677734375q0,3.38134765625-1.409912109375,5.23681640625t-3.839111328125,1.85546875q-2.40478515625,0-3.77197265625-1.74560546875l-0.25634765625,0l-0.62255859375,1.50146484375l-2.84423828125,0l0-18.994140625l3.72314453125,0l0,4.4189453125q0,0.84228515625-0.146484375,2.69775390625l0.146484375,0q1.30615234375-2.0263671875,3.86962890625-2.0263671875z M63.316528320312,34.06494140625q-1.37939453125,0-2.01416015625,0.848388671875t-0.6591796875,2.801513671875l0,0.40283203125q0,2.197265625,0.653076171875,3.1494140625t2.069091796875,0.9521484375q1.1474609375,0,1.824951171875-1.055908203125t0.677490234375-3.070068359375t-0.68359375-3.021240234375t-1.86767578125-1.007080078125z M83.125732421875,44.990234375l-0.72021484375-1.85546875l-0.09765625,0q-0.93994140625,1.18408203125-1.934814453125,1.641845703125t-2.593994140625,0.457763671875q-1.96533203125,0-3.094482421875-1.123046875t-1.129150390625-3.1982421875q0-2.1728515625,1.519775390625-3.204345703125t4.583740234375-1.141357421875l2.3681640625-0.0732421875l0-0.59814453125q0-2.0751953125-2.1240234375-2.0751953125q-1.6357421875,0-3.84521484375,0.98876953125l-1.23291015625-2.5146484375q2.35595703125-1.23291015625,5.224609375-1.23291015625q2.74658203125,0,4.21142578125,1.1962890625t1.46484375,3.6376953125l0,9.09423828125l-2.60009765625,0z M82.027099609375,38.6669921875l-1.4404296875,0.048828125q-1.62353515625,0.048828125-2.4169921875,0.5859375t-0.79345703125,1.6357421875q0,1.57470703125,1.806640625,1.57470703125q1.2939453125,0,2.069091796875-0.74462890625t0.775146484375-1.9775390625l0-1.123046875z M98.894409179688,31.08642578125q0.7568359375,0,1.25732421875,0.10986328125l-0.28076171875,3.4912109375q-0.45166015625-0.1220703125-1.0986328125-0.1220703125q-1.7822265625,0-2.777099609375,0.91552734375t-0.994873046875,2.5634765625l0,6.94580078125l-3.72314453125,0l0-13.6474609375l2.81982421875,0l0.54931640625,2.294921875l0.18310546875,0q0.634765625-1.1474609375,1.715087890625-1.849365234375t2.349853515625-0.701904296875z M111.96533203125,31.08642578125q0.7568359375,0,1.25732421875,0.10986328125l-0.28076171875,3.4912109375q-0.45166015625-0.1220703125-1.0986328125-0.1220703125q-1.7822265625,0-2.777099609375,0.91552734375t-0.994873046875,2.5634765625l0,6.94580078125l-3.72314453125,0l0-13.6474609375l2.81982421875,0l0.54931640625,2.294921875l0.18310546875,0q0.634765625-1.1474609375,1.715087890625-1.849365234375t2.349853515625-0.701904296875z M120.38537597656,38.14208984375q0,2.0263671875,0.665283203125,3.06396484375t2.166748046875,1.03759765625q1.4892578125,0,2.142333984375-1.031494140625t0.653076171875-3.070068359375q0-2.0263671875-0.6591796875-3.03955078125t-2.16064453125-1.01318359375q-1.4892578125,0-2.1484375,1.007080078125t-0.6591796875,3.045654296875z M129.82141113281,38.14208984375q0,3.33251953125-1.7578125,5.21240234375t-4.89501953125,1.8798828125q-1.96533203125,0-3.466796875-0.860595703125t-2.30712890625-2.471923828125t-0.8056640625-3.759765625q0-3.3447265625,1.74560546875-5.2001953125t4.9072265625-1.85546875q1.96533203125,0,3.466796875,0.8544921875t2.30712890625,2.45361328125t0.8056640625,3.74755859375z M140.36547851562,42.26806640625q0.9765625,0,2.34375-0.42724609375l0,2.77099609375q-1.3916015625,0.62255859375-3.41796875,0.62255859375q-2.23388671875,0-3.253173828125-1.129150390625t-1.019287109375-3.387451171875l0-6.57958984375l-1.7822265625,0l0-1.57470703125l2.05078125-1.2451171875l1.07421875-2.880859375l2.38037109375,0l0,2.9052734375l3.82080078125,0l0,2.79541015625l-3.82080078125,0l0,6.57958984375q0,0.79345703125,0.445556640625,1.171875t1.177978515625,0.37841796875z M152.83825683594,33.7353515625q-1.18408203125,0-1.85546875,0.750732421875t-0.76904296875,2.130126953125l5.224609375,0q-0.0244140625-1.37939453125-0.72021484375-2.130126953125t-1.8798828125-0.750732421875z M153.36315917969,45.234375q-3.2958984375,0-5.1513671875-1.81884765625t-1.85546875-5.1513671875q0-3.43017578125,1.715087890625-5.303955078125t4.742431640625-1.873779296875q2.89306640625,0,4.50439453125,1.64794921875t1.611328125,4.55322265625l0,1.806640625l-8.80126953125,0q0.06103515625,1.5869140625,0.93994140625,2.47802734375t2.4658203125,0.89111328125q1.23291015625,0,2.33154296875-0.25634765625t2.294921875-0.81787109375l0,2.880859375q-0.9765625,0.48828125-2.08740234375,0.726318359375t-2.7099609375,0.238037109375z M173.19677734375,40.9375q0,2.099609375-1.458740234375,3.1982421875t-4.364013671875,1.0986328125q-1.4892578125,0-2.5390625-0.201416015625t-1.96533203125-0.592041015625l0-3.076171875q1.03759765625,0.48828125,2.337646484375,0.81787109375t2.288818359375,0.32958984375q2.0263671875,0,2.0263671875-1.171875q0-0.439453125-0.2685546875-0.714111328125t-0.927734375-0.62255859375t-1.7578125-0.811767578125q-1.57470703125-0.6591796875-2.313232421875-1.220703125t-1.07421875-1.287841796875t-0.335693359375-1.788330078125q0-1.81884765625,1.409912109375-2.813720703125t3.997802734375-0.994873046875q2.4658203125,0,4.79736328125,1.07421875l-1.123046875,2.685546875q-1.025390625-0.439453125-1.91650390625-0.72021484375t-1.81884765625-0.28076171875q-1.64794921875,0-1.64794921875,0.89111328125q0,0.50048828125,0.531005859375,0.86669921875t2.325439453125,1.08642578125q1.59912109375,0.64697265625,2.34375,1.20849609375t1.0986328125,1.2939453125t0.35400390625,1.74560546875z"/><path fill="#ffffff" d="M195.78076171875,40.0341796875q0,2.4169921875-1.739501953125,3.80859375t-4.840087890625,1.3916015625q-2.8564453125,0-5.0537109375-1.07421875l0-3.515625q1.806640625,0.8056640625,3.057861328125,1.13525390625t2.288818359375,0.32958984375q1.2451171875,0,1.910400390625-0.47607421875t0.665283203125-1.416015625q0-0.52490234375-0.29296875-0.933837890625t-0.860595703125-0.787353515625t-2.313232421875-1.20849609375q-1.6357421875-0.76904296875-2.45361328125-1.47705078125t-1.30615234375-1.64794921875t-0.48828125-2.197265625q0-2.3681640625,1.605224609375-3.72314453125t4.437255859375-1.35498046875q1.3916015625,0,2.655029296875,0.32958984375t2.642822265625,0.927734375l-1.220703125,2.94189453125q-1.42822265625-0.5859375-2.362060546875-0.81787109375t-1.837158203125-0.23193359375q-1.07421875,0-1.64794921875,0.50048828125t-0.57373046875,1.30615234375q0,0.50048828125,0.23193359375,0.872802734375t0.738525390625,0.72021484375t2.398681640625,1.251220703125q2.50244140625,1.1962890625,3.43017578125,2.398681640625t0.927734375,2.947998046875z M209.10803222656,44.990234375l-0.72021484375-1.85546875l-0.09765625,0q-0.93994140625,1.18408203125-1.934814453125,1.641845703125t-2.593994140625,0.457763671875q-1.96533203125,0-3.094482421875-1.123046875t-1.129150390625-3.1982421875q0-2.1728515625,1.519775390625-3.204345703125t4.583740234375-1.141357421875l2.3681640625-0.0732421875l0-0.59814453125q0-2.0751953125-2.1240234375-2.0751953125q-1.6357421875,0-3.84521484375,0.98876953125l-1.23291015625-2.5146484375q2.35595703125-1.23291015625,5.224609375-1.23291015625q2.74658203125,0,4.21142578125,1.1962890625t1.46484375,3.6376953125l0,9.09423828125l-2.60009765625,0z M208.00939941406,38.6669921875l-1.4404296875,0.048828125q-1.62353515625,0.048828125-2.4169921875,0.5859375t-0.79345703125,1.6357421875q0,1.57470703125,1.806640625,1.57470703125q1.2939453125,0,2.069091796875-0.74462890625t0.775146484375-1.9775390625l0-1.123046875z M229.85717773438,44.990234375l-3.72314453125,0l0-7.97119140625q0-1.47705078125-0.52490234375-2.215576171875t-1.67236328125-0.738525390625q-1.5625,0-2.25830078125,1.043701171875t-0.69580078125,3.460693359375l0,6.4208984375l-3.72314453125,0l0-13.6474609375l2.84423828125,0l0.50048828125,1.74560546875l0.20751953125,0q0.62255859375-0.98876953125,1.715087890625-1.495361328125t2.484130859375-0.506591796875q2.38037109375,0,3.61328125,1.287841796875t1.23291015625,3.717041015625l0,8.89892578125z M247.63720703125,44.990234375l-3.72314453125,0l0-17.8466796875l10.2294921875,0l0,3.1005859375l-6.50634765625,0l0,4.60205078125l6.0546875,0l0,3.08837890625l-6.0546875,0l0,7.0556640625z M266.67736816406,31.08642578125q0.7568359375,0,1.25732421875,0.10986328125l-0.28076171875,3.4912109375q-0.45166015625-0.1220703125-1.0986328125-0.1220703125q-1.7822265625,0-2.777099609375,0.91552734375t-0.994873046875,2.5634765625l0,6.94580078125l-3.72314453125,0l0-13.6474609375l2.81982421875,0l0.54931640625,2.294921875l0.18310546875,0q0.634765625-1.1474609375,1.715087890625-1.849365234375t2.349853515625-0.701904296875z M280.79809570312,44.990234375l-0.72021484375-1.85546875l-0.09765625,0q-0.93994140625,1.18408203125-1.934814453125,1.641845703125t-2.593994140625,0.457763671875q-1.96533203125,0-3.094482421875-1.123046875t-1.129150390625-3.1982421875q0-2.1728515625,1.519775390625-3.204345703125t4.583740234375-1.141357421875l2.3681640625-0.0732421875l0-0.59814453125q0-2.0751953125-2.1240234375-2.0751953125q-1.6357421875,0-3.84521484375,0.98876953125l-1.23291015625-2.5146484375q2.35595703125-1.23291015625,5.224609375-1.23291015625q2.74658203125,0,4.21142578125,1.1962890625t1.46484375,3.6376953125l0,9.09423828125l-2.60009765625,0z M279.69946289062,38.6669921875l-1.4404296875,0.048828125q-1.62353515625,0.048828125-2.4169921875,0.5859375t-0.79345703125,1.6357421875q0,1.57470703125,1.806640625,1.57470703125q1.2939453125,0,2.069091796875-0.74462890625t0.775146484375-1.9775390625l0-1.123046875z M301.54724121094,44.990234375l-3.72314453125,0l0-7.97119140625q0-1.47705078125-0.52490234375-2.215576171875t-1.67236328125-0.738525390625q-1.5625,0-2.25830078125,1.043701171875t-0.69580078125,3.460693359375l0,6.4208984375l-3.72314453125,0l0-13.6474609375l2.84423828125,0l0.50048828125,1.74560546875l0.20751953125,0q0.62255859375-0.98876953125,1.715087890625-1.495361328125t2.484130859375-0.506591796875q2.38037109375,0,3.61328125,1.287841796875t1.23291015625,3.717041015625l0,8.89892578125z M312.640625,45.234375q-6.3720703125,0-6.3720703125-6.99462890625q0-3.47900390625,1.7333984375-5.316162109375t4.96826171875-1.837158203125q2.3681640625,0,4.248046875,0.927734375l-1.0986328125,2.880859375q-0.87890625-0.35400390625-1.6357421875-0.579833984375t-1.513671875-0.225830078125q-2.9052734375,0-2.9052734375,4.1259765625q0,4.00390625,2.9052734375,4.00390625q1.07421875,0,1.98974609375-0.286865234375t1.8310546875-0.897216796875l0,3.18603515625q-0.9033203125,0.57373046875-1.824951171875,0.79345703125t-2.325439453125,0.2197265625z M321.51232910156,27.81494140625q0-1.81884765625,2.0263671875-1.81884765625t2.0263671875,1.81884765625q0,0.86669921875-0.506591796875,1.348876953125t-1.519775390625,0.482177734375q-2.0263671875,0-2.0263671875-1.8310546875z M325.39416503906,44.990234375l-3.72314453125,0l0-13.6474609375l3.72314453125,0l0,13.6474609375z M340.54028320312,40.9375q0,2.099609375-1.458740234375,3.1982421875t-4.364013671875,1.0986328125q-1.4892578125,0-2.5390625-0.201416015625t-1.96533203125-0.592041015625l0-3.076171875q1.03759765625,0.48828125,2.337646484375,0.81787109375t2.288818359375,0.32958984375q2.0263671875,0,2.0263671875-1.171875q0-0.439453125-0.2685546875-0.714111328125t-0.927734375-0.62255859375t-1.7578125-0.811767578125q-1.57470703125-0.6591796875-2.313232421875-1.220703125t-1.07421875-1.287841796875t-0.335693359375-1.788330078125q0-1.81884765625,1.409912109375-2.813720703125t3.997802734375-0.994873046875q2.4658203125,0,4.79736328125,1.07421875l-1.123046875,2.685546875q-1.025390625-0.439453125-1.91650390625-0.72021484375t-1.81884765625-0.28076171875q-1.64794921875,0-1.64794921875,0.89111328125q0,0.50048828125,0.531005859375,0.86669921875t2.325439453125,1.08642578125q1.59912109375,0.64697265625,2.34375,1.20849609375t1.0986328125,1.2939453125t0.35400390625,1.74560546875z M350.70593261719,45.234375q-6.3720703125,0-6.3720703125-6.99462890625q0-3.47900390625,1.7333984375-5.316162109375t4.96826171875-1.837158203125q2.3681640625,0,4.248046875,0.927734375l-1.0986328125,2.880859375q-0.87890625-0.35400390625-1.6357421875-0.579833984375t-1.513671875-0.225830078125q-2.9052734375,0-2.9052734375,4.1259765625q0,4.00390625,2.9052734375,4.00390625q1.07421875,0,1.98974609375-0.286865234375t1.8310546875-0.897216796875l0,3.18603515625q-0.9033203125,0.57373046875-1.824951171875,0.79345703125t-2.325439453125,0.2197265625z M362.70263671875,38.14208984375q0,2.0263671875,0.665283203125,3.06396484375t2.166748046875,1.03759765625q1.4892578125,0,2.142333984375-1.031494140625t0.653076171875-3.070068359375q0-2.0263671875-0.6591796875-3.03955078125t-2.16064453125-1.01318359375q-1.4892578125,0-2.1484375,1.007080078125t-0.6591796875,3.045654296875z M372.138671875,38.14208984375q0,3.33251953125-1.7578125,5.21240234375t-4.89501953125,1.8798828125q-1.96533203125,0-3.466796875-0.860595703125t-2.30712890625-2.471923828125t-0.8056640625-3.759765625q0-3.3447265625,1.74560546875-5.2001953125t4.9072265625-1.85546875q1.96533203125,0,3.466796875,0.8544921875t2.30712890625,2.45361328125t0.8056640625,3.74755859375z"/></svg>
